<svg xmlns="http://www.w3.org/2000/svg" viewBox="0 0 256 256" width="256" height="256">
<defs>
<linearGradient id="g0" gradientUnits="userSpaceOnUse" x1="128.00" y1="88.47" x2="44.55" y2="120.89"><stop offset="0" stop-color="#5aa9ff"/><stop offset="1" stop-color="#3b8ff5"/></linearGradient>
<linearGradient id="g1" gradientUnits="userSpaceOnUse" x1="128.00" y1="90.98" x2="128.00" y2="153.31"><stop offset="0" stop-color="#001a5c"/><stop offset="1" stop-color="#0a4fc4"/></linearGradient>
<linearGradient id="g7" gradientUnits="userSpaceOnUse" x1="113.99" y1="155.82" x2="84.71" y2="218.56"><stop offset="0" stop-color="#0c58cc"/><stop offset="1" stop-color="#2286fd"/></linearGradient>
<linearGradient id="g8" gradientUnits="userSpaceOnUse" x1="142.01" y1="155.82" x2="171.29" y2="218.56"><stop offset="0" stop-color="#06399a"/><stop offset="1" stop-color="#0a52c4"/></linearGradient>
<linearGradient id="g10" gradientUnits="userSpaceOnUse" x1="15.90" y1="145.99" x2="128.00" y2="153.31"><stop offset="0" stop-color="#63b8ff"/><stop offset="1" stop-color="#3e97fb"/></linearGradient>
<linearGradient id="g12" gradientUnits="userSpaceOnUse" x1="128.00" y1="153.31" x2="240.10" y2="145.99"><stop offset="0" stop-color="#2e8cfd"/><stop offset="1" stop-color="#2380f4"/></linearGradient>
</defs>
<path d="M44.55,120.89 L128.00,88.47 L211.45,120.89 L128.00,153.31 Z" fill="url(#g0)"/>
<path d="M44.55,126.91 L128.00,94.49 L211.45,126.91 L128.00,159.33 Z" fill="url(#g1)"/>
<path d="M49.78,85.54 L51.63,84.60 L53.46,83.65 L55.28,82.68 L57.07,81.69 L58.85,80.69 L60.61,79.68 L62.35,78.66 L64.07,77.62 L65.78,76.56 L67.46,75.49 L69.13,74.41 L70.78,73.31 L72.41,72.20 L74.02,71.07 L75.61,69.93 L77.18,68.78 L78.74,67.61 L80.27,66.43 L81.79,65.23 L83.29,64.02 L84.77,62.80 L86.23,61.56 L87.67,60.31 L89.10,59.04 L90.50,57.76 L91.89,56.46 L93.26,55.15 L94.61,53.83 L95.94,52.49 L97.25,51.14 L98.55,49.77 L99.83,48.39 L101.08,47.00 L102.32,45.59 L103.54,44.16 L104.74,42.73 L105.93,41.27 L107.09,39.81 L108.24,38.33 L109.36,36.83 L110.47,35.33 L111.56,33.80 L112.63,32.27 L113.68,30.72 L114.72,29.15 L115.73,27.57 L116.73,25.98 L117.71,24.37 L118.67,22.75 L119.61,21.11 L120.53,19.46 L121.44,17.80 L122.32,16.12 L123.19,14.43 L124.04,12.72 L124.87,11.00 L125.68,9.26 L126.47,7.52 L127.24,5.75 L128.00,3.97 L128.00,85.96 Z" fill="#fdd34a"/>
<path d="M128.00,168.37 L127.24,166.46 L126.47,164.57 L125.68,162.69 L124.87,160.84 L124.04,159.00 L123.19,157.18 L122.32,155.38 L121.44,153.60 L120.53,151.84 L119.61,150.09 L118.67,148.36 L117.71,146.65 L116.73,144.95 L115.73,143.28 L114.72,141.62 L113.68,139.98 L112.63,138.36 L111.56,136.76 L110.47,135.17 L109.36,133.60 L108.24,132.05 L107.09,130.52 L105.93,129.00 L104.74,127.51 L103.54,126.03 L102.32,124.57 L101.08,123.12 L99.83,121.70 L98.55,120.29 L97.25,118.90 L95.94,117.53 L94.61,116.18 L93.26,114.84 L91.89,113.52 L90.50,112.22 L89.10,110.94 L87.67,109.68 L86.23,108.43 L84.77,107.20 L83.29,105.99 L81.79,104.80 L80.27,103.63 L78.74,102.47 L77.18,101.33 L75.61,100.21 L74.02,99.11 L72.41,98.02 L70.78,96.95 L69.13,95.90 L67.46,94.87 L65.78,93.86 L64.07,92.86 L62.35,91.89 L60.61,90.93 L58.85,89.98 L57.07,89.06 L55.28,88.15 L53.46,87.27 L51.63,86.40 L49.78,85.54 L128.00,85.96 Z" fill="#fdd34a"/>
<path d="M206.22,85.54 L204.37,86.40 L202.54,87.27 L200.72,88.15 L198.93,89.06 L197.15,89.98 L195.39,90.93 L193.65,91.89 L191.93,92.86 L190.22,93.86 L188.54,94.87 L186.87,95.90 L185.22,96.95 L183.59,98.02 L181.98,99.11 L180.39,100.21 L178.82,101.33 L177.26,102.47 L175.73,103.63 L174.21,104.80 L172.71,105.99 L171.23,107.20 L169.77,108.43 L168.33,109.68 L166.90,110.94 L165.50,112.22 L164.11,113.52 L162.74,114.84 L161.39,116.18 L160.06,117.53 L158.75,118.90 L157.45,120.29 L156.17,121.70 L154.92,123.12 L153.68,124.57 L152.46,126.03 L151.26,127.51 L150.07,129.00 L148.91,130.52 L147.76,132.05 L146.64,133.60 L145.53,135.17 L144.44,136.76 L143.37,138.36 L142.32,139.98 L141.28,141.62 L140.27,143.28 L139.27,144.95 L138.29,146.65 L137.33,148.36 L136.39,150.09 L135.47,151.84 L134.56,153.60 L133.68,155.38 L132.81,157.18 L131.96,159.00 L131.13,160.84 L130.32,162.69 L129.53,164.57 L128.76,166.46 L128.00,168.37 L128.00,85.96 Z" fill="#f39a0c"/>
<path d="M128.00,3.97 L128.76,5.75 L129.53,7.52 L130.32,9.26 L131.13,11.00 L131.96,12.72 L132.81,14.43 L133.68,16.12 L134.56,17.80 L135.47,19.46 L136.39,21.11 L137.33,22.75 L138.29,24.37 L139.27,25.98 L140.27,27.57 L141.28,29.15 L142.32,30.72 L143.37,32.27 L144.44,33.80 L145.53,35.33 L146.64,36.83 L147.76,38.33 L148.91,39.81 L150.07,41.27 L151.26,42.73 L152.46,44.16 L153.68,45.59 L154.92,47.00 L156.17,48.39 L157.45,49.77 L158.75,51.14 L160.06,52.49 L161.39,53.83 L162.74,55.15 L164.11,56.46 L165.50,57.76 L166.90,59.04 L168.33,60.31 L169.77,61.56 L171.23,62.80 L172.71,64.02 L174.21,65.23 L175.73,66.43 L177.26,67.61 L178.82,68.78 L180.39,69.93 L181.98,71.07 L183.59,72.20 L185.22,73.31 L186.87,74.41 L188.54,75.49 L190.22,76.56 L191.93,77.62 L193.65,78.66 L195.39,79.68 L197.15,80.69 L198.93,81.69 L200.72,82.68 L202.54,83.65 L204.37,84.60 L206.22,85.54 L128.00,85.96 Z" fill="#f39a0c"/>
<path d="M128.00,3.97 L127.24,5.75 L126.47,7.52 L125.68,9.26 L124.87,11.00 L124.04,12.72 L123.19,14.43 L122.32,16.12 L121.44,17.80 L120.53,19.46 L119.61,21.11 L118.67,22.75 L117.71,24.37 L116.73,25.98 L115.73,27.57 L114.72,29.15 L113.68,30.72 L112.63,32.27 L111.56,33.80 L110.47,35.33 L109.36,36.83 L108.24,38.33 L107.09,39.81 L105.93,41.27 L104.74,42.73 L103.54,44.16 L102.32,45.59 L101.08,47.00 L99.83,48.39 L98.55,49.77 L97.25,51.14 L95.94,52.49 L94.61,53.83 L93.26,55.15 L91.89,56.46 L90.50,57.76 L89.10,59.04 L87.67,60.31 L86.23,61.56 L84.77,62.80 L83.29,64.02 L81.79,65.23 L80.27,66.43 L78.74,67.61 L77.18,68.78 L75.61,69.93 L74.02,71.07 L72.41,72.20 L70.78,73.31 L69.13,74.41 L67.46,75.49 L65.78,76.56 L64.07,77.62 L62.35,78.66 L60.61,79.68 L58.85,80.69 L57.07,81.69 L55.28,82.68 L53.46,83.65 L51.63,84.60 L49.78,85.54 L51.63,86.40 L53.46,87.27 L55.28,88.15 L57.07,89.06 L58.85,89.98 L60.61,90.93 L62.35,91.89 L64.07,92.86 L65.78,93.86 L67.46,94.87 L69.13,95.90 L70.78,96.95 L72.41,98.02 L74.02,99.11 L75.61,100.21 L77.18,101.33 L78.74,102.47 L80.27,103.63 L81.79,104.80 L83.29,105.99 L84.77,107.20 L86.23,108.43 L87.67,109.68 L89.10,110.94 L90.50,112.22 L91.89,113.52 L93.26,114.84 L94.61,116.18 L95.94,117.53 L97.25,118.90 L98.55,120.29 L99.83,121.70 L101.08,123.12 L102.32,124.57 L103.54,126.03 L104.74,127.51 L105.93,129.00 L107.09,130.52 L108.24,132.05 L109.36,133.60 L110.47,135.17 L111.56,136.76 L112.63,138.36 L113.68,139.98 L114.72,141.62 L115.73,143.28 L116.73,144.95 L117.71,146.65 L118.67,148.36 L119.61,150.09 L120.53,151.84 L121.44,153.60 L122.32,155.38 L123.19,157.18 L124.04,159.00 L124.87,160.84 L125.68,162.69 L126.47,164.57 L127.24,166.46 L128.00,168.37 L128.76,166.46 L129.53,164.57 L130.32,162.69 L131.13,160.84 L131.96,159.00 L132.81,157.18 L133.68,155.38 L134.56,153.60 L135.47,151.84 L136.39,150.09 L137.33,148.36 L138.29,146.65 L139.27,144.95 L140.27,143.28 L141.28,141.62 L142.32,139.98 L143.37,138.36 L144.44,136.76 L145.53,135.17 L146.64,133.60 L147.76,132.05 L148.91,130.52 L150.07,129.00 L151.26,127.51 L152.46,126.03 L153.68,124.57 L154.92,123.12 L156.17,121.70 L157.45,120.29 L158.75,118.90 L160.06,117.53 L161.39,116.18 L162.74,114.84 L164.11,113.52 L165.50,112.22 L166.90,110.94 L168.33,109.68 L169.77,108.43 L171.23,107.20 L172.71,105.99 L174.21,104.80 L175.73,103.63 L177.26,102.47 L178.82,101.33 L180.39,100.21 L181.98,99.11 L183.59,98.02 L185.22,96.95 L186.87,95.90 L188.54,94.87 L190.22,93.86 L191.93,92.86 L193.65,91.89 L195.39,90.93 L197.15,89.98 L198.93,89.06 L200.72,88.15 L202.54,87.27 L204.37,86.40 L206.22,85.54 L204.37,84.60 L202.54,83.65 L200.72,82.68 L198.93,81.69 L197.15,80.69 L195.39,79.68 L193.65,78.66 L191.93,77.62 L190.22,76.56 L188.54,75.49 L186.87,74.41 L185.22,73.31 L183.59,72.20 L181.98,71.07 L180.39,69.93 L178.82,68.78 L177.26,67.61 L175.73,66.43 L174.21,65.23 L172.71,64.02 L171.23,62.80 L169.77,61.56 L168.33,60.31 L166.90,59.04 L165.50,57.76 L164.11,56.46 L162.74,55.15 L161.39,53.83 L160.06,52.49 L158.75,51.14 L157.45,49.77 L156.17,48.39 L154.92,47.00 L153.68,45.59 L152.46,44.16 L151.26,42.73 L150.07,41.27 L148.91,39.81 L147.76,38.33 L146.64,36.83 L145.53,35.33 L144.44,33.80 L143.37,32.27 L142.32,30.72 L141.28,29.15 L140.27,27.57 L139.27,25.98 L138.29,24.37 L137.33,22.75 L136.39,21.11 L135.47,19.46 L134.56,17.80 L133.68,16.12 L132.81,14.43 L131.96,12.72 L131.13,11.00 L130.32,9.26 L129.53,7.52 L128.76,5.75 Z" fill="none" stroke="#ffffff" stroke-width="7.11" stroke-opacity="1.0" stroke-linejoin="round" stroke-linecap="round"/>
<path d="M44.55,120.89 L128.63,153.73 L128.63,251.77 L128.00,252.24 L46.81,213.37 L46.28,213.08 L45.82,212.74 L45.43,212.36 L45.11,211.93 L44.87,211.46 L44.69,210.94 L44.58,210.38 L44.55,209.78 Z" fill="url(#g7)"/>
<path d="M211.45,209.78 L211.42,210.38 L211.31,210.94 L211.13,211.46 L210.89,211.93 L210.57,212.36 L210.18,212.74 L209.72,213.08 L209.19,213.37 L128.00,252.24 L128.00,153.31 L211.45,120.89 Z" fill="url(#g8)"/>
<path d="M128.00,159.98 L105.71,179.50 L104.36,180.56 L102.96,181.39 L101.52,181.99 L100.05,182.37 L98.53,182.52 L96.97,182.44 L95.37,182.14 L93.74,181.61 L17.84,152.13 L17.41,151.93 L17.08,151.70 L16.86,151.45 L16.74,151.18 L16.73,150.88 L16.82,150.56 L17.02,150.22 L17.33,149.85 L44.55,120.89 L128.00,153.31 Z M16.78,145.83 L16.78,145.56 L16.90,145.26 L17.13,144.94 L17.47,144.61 L17.84,146.74 L17.84,152.13 L17.41,151.93 L17.09,151.71 L16.88,151.47 L16.78,151.22 Z" fill="#1d74e6"/>
<path d="M128.00,153.31 L100.92,177.03 L100.52,177.34 L100.11,177.58 L99.69,177.76 L99.25,177.87 L98.81,177.92 L98.35,177.89 L97.88,177.80 L97.40,177.65 L17.84,146.74 L17.41,146.55 L17.09,146.33 L16.88,146.09 L16.78,145.83 L16.78,145.56 L16.90,145.26 L17.13,144.94 L17.47,144.61 L44.55,120.89 Z" fill="url(#g10)"/>
<path d="M128.00,153.31 L211.45,120.89 L238.67,149.85 L238.98,150.22 L239.18,150.56 L239.27,150.88 L239.26,151.18 L239.14,151.45 L238.92,151.70 L238.59,151.93 L238.16,152.13 L162.26,181.61 L160.63,182.14 L159.03,182.44 L157.47,182.52 L155.95,182.37 L154.48,181.99 L153.04,181.39 L151.64,180.56 L150.29,179.50 L128.00,159.98 Z M238.16,146.74 L238.53,144.61 L238.87,144.94 L239.10,145.26 L239.22,145.56 L239.22,145.83 L239.22,151.22 L239.12,151.47 L238.91,151.71 L238.59,151.93 L238.16,152.13 Z" fill="#1463d6"/>
<path d="M211.45,120.89 L238.53,144.61 L238.87,144.94 L239.10,145.26 L239.22,145.56 L239.22,145.83 L239.12,146.09 L238.91,146.33 L238.59,146.55 L238.16,146.74 L158.60,177.65 L158.12,177.80 L157.65,177.89 L157.19,177.92 L156.75,177.87 L156.31,177.76 L155.89,177.58 L155.48,177.34 L155.08,177.03 L128.00,153.31 Z" fill="url(#g12)"/>
</svg>
